<svg xmlns="http://www.w3.org/2000/svg" xmlns:xlink="http://www.w3.org/1999/xlink" width="16" height="16" viewBox="0 0 16 16"><defs><style>.a{fill:#89a4b4;}.b{clip-path:url(#a);}</style><clipPath id="a"><rect class="a" width="16" height="16" transform="translate(0.043 0.043)"/></clipPath></defs><g transform="translate(-0.043 -0.043)"><g class="b"><path class="a" d="M16.086,418.578v1.072a.947.947,0,0,1-.946.946H.946A.947.947,0,0,1,0,419.651v-1.072a.947.947,0,0,1,.946-.946H15.14a.947.947,0,0,1,.946.946" transform="translate(0 -404.511)"/><path class="a" d="M48.188,196.768v5.993H61.246v-5.993H58.282v4.92H56.2v-4.92H53.235v4.92H51.153v-4.92Z" transform="translate(-46.675 -190.586)"/><path class="a" d="M.486,5.236h15.14a.474.474,0,0,0,.233-.885L8.289.062a.473.473,0,0,0-.466,0L.253,4.352a.474.474,0,0,0,.233.885" transform="translate(-0.013 0)"/></g></g></svg>