<svg xmlns="http://www.w3.org/2000/svg" xmlns:xlink="http://www.w3.org/1999/xlink" width="16" height="13.734" viewBox="0 0 16 13.734"><defs><style>.a{fill:#89a4b4;}.b{clip-path:url(#a);}</style><clipPath id="a"><rect class="a" width="16" height="13.734" transform="translate(0 0)"/></clipPath></defs><g transform="translate(0 0)"><g class="b" transform="translate(0 0)"><path class="a" d="M18.206,19.907v3.22a.939.939,0,0,1-.938.938H9.2a.939.939,0,0,1-.938-.938v-3.22L12.442,21.8a1.917,1.917,0,0,0,1.587,0l4.176-1.893" transform="translate(-5.238 -12.612)"/><path class="a" d="M16,4.2a.973.973,0,0,0-.566-.838L8.415.093a.981.981,0,0,0-.832,0L.568,3.366a.984.984,0,0,0,.01,1.788l7.014,3.18a.983.983,0,0,0,.812,0l6.657-3.018v7.949a.469.469,0,0,0,.938,0C16,3.6,16,4.256,16,4.2" transform="translate(0 0)"/></g></g></svg>