<svg xmlns="http://www.w3.org/2000/svg" width="13.876" height="16" viewBox="0 0 13.876 16"><defs><style>.a{fill:#89a4b4;}</style></defs><g transform="translate(48.938 -100)"><path class="a" d="M-35.062,100.622a.625.625,0,0,0-.625-.622h-1.986a.625.625,0,0,0-.625.625.625.625,0,0,0,.625.625h.477l-2.138,2.138a3.973,3.973,0,0,0-2.351-.766,4.008,4.008,0,0,0-3.815,2.793,4.006,4.006,0,0,0-3.438,3.962,4.008,4.008,0,0,0,3.376,3.952V114h-.129a.625.625,0,0,0-.625.625.625.625,0,0,0,.625.625h.129v.13a.625.625,0,0,0,.625.625.625.625,0,0,0,.625-.625v-.13h.13a.625.625,0,0,0,.625-.625.625.625,0,0,0-.625-.625h-.13v-.666a4.013,4.013,0,0,0,3.19-2.744,4.007,4.007,0,0,0,3.438-3.962,3.973,3.973,0,0,0-.766-2.351l2.138-2.138v.477a.625.625,0,0,0,.625.625.625.625,0,0,0,.625-.625v-1.989Zm-9.875,11.506a2.754,2.754,0,0,1-2.751-2.751,2.755,2.755,0,0,1,2-2.648,4.009,4.009,0,0,0,3.236,3.823A2.756,2.756,0,0,1-44.937,112.128Zm.5-5.457a2.755,2.755,0,0,1,2.25,2.658A2.755,2.755,0,0,1-44.436,106.671Zm3.5,2.6a4.009,4.009,0,0,0-3.236-3.823,2.756,2.756,0,0,1,2.488-1.576,2.754,2.754,0,0,1,2.751,2.751A2.755,2.755,0,0,1-40.937,109.271Z"/></g></svg>