<svg xmlns="http://www.w3.org/2000/svg" width="18" height="12.316" viewBox="0 0 18 12.316"><defs><style>.a{fill:#89a4b4;}</style></defs><g transform="translate(-665.75 -461.323)"><path class="a" d="M674.616,464.828a.406.406,0,0,0-.616.348v3.417a.411.411,0,0,0,.206.355.424.424,0,0,0,.2.052.4.4,0,0,0,.209-.058l2.847-1.708a.407.407,0,0,0,0-.7Z" transform="translate(-0.538 0.653)"/><path class="a" d="M683.276,471.744h-.947v-8.689a1.735,1.735,0,0,0-1.733-1.732H668.9a1.735,1.735,0,0,0-1.733,1.732v8.689h-.947a.474.474,0,0,0-.474.474v.947a.474.474,0,0,0,.474.474h17.053a.474.474,0,0,0,.474-.474v-.947A.474.474,0,0,0,683.276,471.744Zm-15.158-8.689a.786.786,0,0,1,.785-.784H680.6a.786.786,0,0,1,.785.784v8.689H668.118Z" transform="translate(0)"/></g></svg>