<svg xmlns="http://www.w3.org/2000/svg" xmlns:xlink="http://www.w3.org/1999/xlink" width="16" height="16" viewBox="0 0 16 16"><defs><style>.a{fill:#89a4b4;}.b{clip-path:url(#a);}</style><clipPath id="a"><rect class="a" width="16" height="16"/></clipPath></defs><g class="b"><path class="a" d="M13.938,1.25H12.5V.5a.5.5,0,0,0-1,0v.75h-7V.5a.5.5,0,0,0-1,0v.75H2.063A2.065,2.065,0,0,0,0,3.313V13.938A2.065,2.065,0,0,0,2.063,16H13.938A2.065,2.065,0,0,0,16,13.938V3.313A2.065,2.065,0,0,0,13.938,1.25M15,13.938A1.062,1.062,0,0,1,13.938,15H2.063A1.062,1.062,0,0,1,1,13.938V5.656A.156.156,0,0,1,1.156,5.5H14.844A.156.156,0,0,1,15,5.656Z"/><path class="a" d="M129.651,233.47a.627.627,0,0,1-.441-.182l-2.49-2.49a.622.622,0,1,1,.88-.88l2.019,2.019,3.919-4.479a.622.622,0,1,1,.936.82l-4.357,4.98a.619.619,0,0,1-.447.212Z" transform="translate(-122.584 -220.143)"/></g></svg>