<svg xmlns="http://www.w3.org/2000/svg" width="16" height="15.695" viewBox="0 0 16 15.695"><defs><style>.a{fill:#89a4b4;}</style></defs><g transform="translate(326 6.848)"><path class="a" d="M-321.776-4.128a.952.952,0,0,0,.952-.952,5.1,5.1,0,0,0-.7-1.625.285.285,0,0,0-.494,0,5.1,5.1,0,0,0-.7,1.625A.952.952,0,0,0-321.776-4.128Z"/><path class="a" d="M-318-4.128a.952.952,0,0,0,.952-.952,5.1,5.1,0,0,0-.7-1.625.285.285,0,0,0-.494,0,5.1,5.1,0,0,0-.7,1.625A.952.952,0,0,0-318-4.128Z"/><path class="a" d="M-314.224-4.128a.952.952,0,0,0,.952-.952,5.1,5.1,0,0,0-.7-1.625.285.285,0,0,0-.494,0,5.1,5.1,0,0,0-.7,1.625.952.952,0,0,0,.952.952Z"/><path class="a" d="M-322.3-3.345a.422.422,0,0,0-.422.422v3.4h1.892v-3.4a.422.422,0,0,0-.422-.422Z"/><path class="a" d="M-318.524-3.345a.422.422,0,0,0-.422.422v3.4h1.892v-3.4a.422.422,0,0,0-.422-.422Z"/><path class="a" d="M-314.748-3.345a.422.422,0,0,0-.422.422v3.4h1.892v-3.4a.422.422,0,0,0-.422-.422Z"/><path class="a" d="M-323.93,4.128a.808.808,0,0,0,.232-.033l1.184-.351a4.222,4.222,0,0,1,1.193-.171,4.234,4.234,0,0,1,1.194.171l.934.277A4.223,4.223,0,0,0-318,4.193a4.223,4.223,0,0,0,1.193-.172l.934-.277a4.234,4.234,0,0,1,1.194-.171,4.227,4.227,0,0,1,1.193.171l1.184.351a.808.808,0,0,0,.232.033.672.672,0,0,0,.712-.617V2.3a.789.789,0,0,0-.839-.726H-323.8a.789.789,0,0,0-.839.726V3.511a.672.672,0,0,0,.712.617Z"/><path class="a" d="M-310.469,7.91h-1.279V5.036a1.82,1.82,0,0,1-.322.03,1.761,1.761,0,0,1-.5-.072l-1.183-.351a3.272,3.272,0,0,0-.927-.133,3.272,3.272,0,0,0-.927.133l-.934.277a5.165,5.165,0,0,1-1.46.21,5.165,5.165,0,0,1-1.46-.21l-.934-.277a3.272,3.272,0,0,0-.927-.133,3.272,3.272,0,0,0-.927.133l-1.183.351a1.761,1.761,0,0,1-.5.072,1.82,1.82,0,0,1-.322-.03V7.91h-1.279a.469.469,0,0,0-.469.469.469.469,0,0,0,.469.469h15.062A.469.469,0,0,0-310,8.379a.469.469,0,0,0-.469-.469Z"/></g></svg>