<svg xmlns="http://www.w3.org/2000/svg" viewBox="0 0 262 136" width="262" height="136">
	<style>
		tspan { white-space:pre }
		.shp0 { fill: none;stroke: #959595;stroke-width: 1;stroke-dasharray: 4 } 
		.shp1 { fill: #e61378;stroke: #000000;stroke-linecap:round;stroke-linejoin:round } 
	</style>
	<g id="Layer">
		<path id="Layer" class="shp0" d="M6.09 1.67C8.92 58.31 58.4 103 98.43 110.08C138.46 117.16 172.54 100.42 177.76 79.34C179.71 71.22 178.91 61.21 170.74 61.61C164.46 63.78 161.08 71.18 179.17 95.28C189.87 108.3 218.14 137.5 261.88 134.38" />
		<path id="Layer" class="shp1" d="M0.72 14.1C0.72 14.1 4.61 5.69 6.3 0.5C7.52 2.92 9.75 8.5 12.31 11.85C7.15 8.86 8.78 8.34 6.3 6.62C6.01 9.94 0.72 14.1 0.72 14.1Z" />
	</g>
</svg>